<svg width="82" height="82" viewBox="0 0 82 82" fill="none" xmlns="http://www.w3.org/2000/svg">
<path d="M40.965 80.3125C30.4713 80.3025 20.6087 76.2113 13.1925 68.7887C5.77375 61.3638 1.6875 51.495 1.6875 41C1.6875 30.505 5.77375 20.6362 13.1925 13.2113C20.61 5.78875 30.4725 1.69625 40.9663 1.6875H41C51.5013 1.6875 61.3725 5.77625 68.7975 13.2013C76.2225 20.6263 80.3125 30.4987 80.3125 41C80.3125 51.5013 76.2237 61.3725 68.7975 68.7975C61.3713 76.2225 51.5 80.3125 41 80.3125H40.965ZM42.6587 55.0125C44.5887 54.975 46.2213 54.6475 47.5125 54.0387C48.8387 53.4137 49.8025 52.605 50.4588 51.565C51.1163 50.5225 51.4362 49.3563 51.4362 47.9975C51.4362 46.76 51.1825 45.6975 50.6825 44.8413C50.1675 43.9613 49.525 43.2988 48.715 42.8175C47.9 42.3325 47.0538 42.0775 46.13 42.0375L44.515 41.9688V38.6937L45.8325 38.3975C46.7137 38.2 47.5012 37.8638 48.175 37.4C48.81 36.9625 49.2975 36.4137 49.6637 35.7225C50.0238 35.045 50.205 34.2213 50.205 33.275C50.205 32.0138 49.91 30.9412 49.3025 29.9937C48.7 29.0537 47.7987 28.3275 46.5462 27.7712C45.4925 27.3037 44.1888 27.02 42.6575 26.9225V55.01L42.6587 55.0125Z" fill="#FFFFF9"/>
<path d="M41 3.375C61.78 3.375 78.625 20.22 78.625 41C78.625 61.78 61.78 78.625 41 78.625C40.99 78.625 40.9812 78.625 40.9712 78.625C20.205 78.61 3.375 61.77 3.375 41C3.375 20.23 20.205 3.39125 40.9712 3.375C40.9812 3.375 40.99 3.375 41 3.375ZM40.9712 56.7038H42.2788C44.6375 56.7038 46.6213 56.325 48.2313 55.565C49.8413 54.8062 51.0588 53.7725 51.885 52.465C52.71 51.1575 53.1237 49.6675 53.1237 47.9963C53.1237 46.4475 52.795 45.1125 52.1387 43.9888C51.4825 42.8662 50.6287 41.9912 49.5775 41.3662C48.5262 40.7412 47.4012 40.4025 46.2012 40.3512V40.0438C47.2987 39.7975 48.275 39.38 49.1312 38.79C49.9875 38.2 50.6613 37.4412 51.1538 36.5137C51.6463 35.5862 51.8925 34.5062 51.8925 33.2762C51.8925 31.6975 51.5025 30.3 50.7238 29.085C49.9438 27.87 48.78 26.9188 47.2325 26.2313C45.6837 25.5438 43.7513 25.2 41.4338 25.2H40.9725V56.7038M41.0013 0C40.9837 0 40.965 0 40.9475 0C35.4237 0.0075 30.0662 1.095 25.0212 3.23125C20.1425 5.2975 15.7612 8.25375 12 12.0175C8.23875 15.7812 5.285 20.165 3.2225 25.045C1.08375 30.1012 0 35.4688 0 41C0 46.5312 1.08375 51.8988 3.22 56.9538C5.28375 61.835 8.23625 66.2175 11.9975 69.9812C15.7588 73.745 20.14 76.7012 25.0187 78.7675C30.065 80.905 35.4225 81.9925 40.945 81.9987C40.9625 81.9987 40.9812 81.9987 40.9987 81.9987C46.5325 81.9987 51.9025 80.9137 56.9588 78.775C61.8413 76.71 66.2262 73.7537 69.99 69.99C73.7537 66.2262 76.71 61.8413 78.775 56.9588C80.9137 51.9025 81.9987 46.5325 81.9987 40.9987C81.9987 35.465 80.9137 30.095 78.775 25.0387C76.71 20.1562 73.7537 15.7712 69.99 12.0075C66.2262 8.24375 61.8413 5.2875 56.9588 3.2225C51.9038 1.085 46.5337 0 41 0H41.0013ZM44.3475 37.0025V28.8425C44.9137 28.9613 45.42 29.12 45.865 29.3175C46.805 29.735 47.4662 30.255 47.885 30.9075C48.3125 31.5737 48.52 32.3488 48.52 33.2775C48.52 33.945 48.4037 34.5025 48.175 34.9338C47.9387 35.38 47.6263 35.7325 47.22 36.0125C46.7175 36.3587 46.1437 36.6 45.465 36.7525L44.3488 37.0025H44.3475ZM44.3475 53.1963V43.6512L46.0575 43.725C46.6962 43.7525 47.2838 43.93 47.8525 44.2687C48.4088 44.6 48.8587 45.0662 49.225 45.6937C49.5775 46.2962 49.7487 47.05 49.7487 47.9975C49.7487 49.0275 49.5137 49.9 49.0312 50.6637C48.5513 51.4237 47.8187 52.0288 46.7925 52.5125C46.1063 52.8363 45.2875 53.065 44.3462 53.1963H44.3475Z" fill="#161616"/>
<path d="M3.375 41C3.375 61.77 20.205 78.6087 40.9712 78.625V3.375C20.205 3.39 3.375 20.23 3.375 41Z" fill="#43E597"/>
<path d="M40.9098 51.2587H35.4798V42.8912H40.9711V38.3612C40.7898 38.375 40.6061 38.3837 40.4173 38.3837H35.4798V30.585H40.5411C40.6886 30.585 40.8311 30.59 40.9723 30.5962V25.2012H28.8198V56.705H40.9723V51.2587C40.9511 51.2587 40.9311 51.2587 40.9111 51.2587H40.9098Z" fill="#FFFFF9"/>
<path d="M44.9712 50.1888C45.8224 49.4763 46.2474 48.525 46.2474 47.335C46.2474 46.4638 46.0374 45.695 45.6174 45.0275C45.1962 44.3613 44.5999 43.8375 43.8249 43.4588C43.0499 43.08 42.1299 42.89 41.0637 42.89H40.9712V51.2575C42.7949 51.25 44.1287 50.8938 44.9712 50.1888Z" fill="#FFFFF9"/>
<path d="M42.8564 37.8987C43.5689 37.5762 44.1327 37.1175 44.5489 36.5225C44.9639 35.9275 45.1714 35.215 45.1714 34.3837C45.1714 33.245 44.7689 32.3275 43.9639 31.63C43.2389 31.0025 42.2414 30.6575 40.9727 30.595V38.36C41.6627 38.3075 42.2914 38.1537 42.8564 37.8975V37.8987Z" fill="#FFFFF9"/>
<path d="M48.2324 55.565C49.8424 54.8063 51.0599 53.7725 51.8861 52.465C52.7111 51.1575 53.1249 49.6675 53.1249 47.9963C53.1249 46.4475 52.7961 45.1125 52.1399 43.9888C51.4836 42.8663 50.6299 41.9913 49.5786 41.3663C48.5274 40.7413 47.4024 40.4025 46.2024 40.3513V40.0438C47.2999 39.7975 48.2761 39.38 49.1324 38.79C49.9886 38.2 50.6624 37.4413 51.1549 36.5138C51.6474 35.5863 51.8936 34.5063 51.8936 33.2763C51.8936 31.6975 51.5036 30.3 50.7249 29.085C49.9449 27.87 48.7811 26.9188 47.2336 26.2313C45.6849 25.5438 43.7524 25.2 41.4349 25.2H40.9736V30.595C42.2424 30.6575 43.2411 31.0025 43.9649 31.63C44.7699 32.3275 45.1724 33.245 45.1724 34.3838C45.1724 35.215 44.9649 35.9275 44.5499 36.5225C44.1349 37.1175 43.5699 37.5763 42.8574 37.8988C42.2924 38.155 41.6636 38.3075 40.9736 38.3613V42.8913H41.0661C42.1324 42.8913 43.0524 43.0813 43.8274 43.46C44.6011 43.84 45.1986 44.3625 45.6199 45.0288C46.0399 45.695 46.2499 46.465 46.2499 47.3363C46.2499 48.5263 45.8236 49.4775 44.9736 50.19C44.1324 50.895 42.7986 51.25 40.9736 51.2588V56.705H42.2811C44.6399 56.705 46.6236 56.3263 48.2336 55.5663L48.2324 55.565Z" fill="#161616"/>
<path d="M41.4327 25.2C43.7502 25.2 45.6827 25.5438 47.2315 26.2313C48.7802 26.9188 49.944 27.87 50.7227 29.085C51.5015 30.3 51.8915 31.6975 51.8915 33.2762C51.8915 34.5062 51.6452 35.5862 51.1527 36.5137C50.6602 37.4425 49.9865 38.2013 49.1302 38.79C48.274 39.38 47.2965 39.7975 46.2002 40.0438V40.3512C47.4002 40.4025 48.5252 40.7412 49.5765 41.3662C50.6277 41.9912 51.4815 42.8662 52.1377 43.9888C52.794 45.1113 53.1227 46.4475 53.1227 47.9963C53.1227 49.6675 52.7102 51.1575 51.884 52.465C51.059 53.7725 49.8402 54.8062 48.2302 55.565C46.6202 56.3237 44.6352 56.7038 42.2777 56.7038H40.9702V78.625C40.9802 78.625 40.989 78.625 40.999 78.625C61.779 78.625 78.624 61.78 78.624 41C78.624 20.22 61.7802 3.375 41.0002 3.375C40.9902 3.375 40.9815 3.375 40.9715 3.375V25.2H41.4327Z" fill="#FFFFF9"/>
</svg>
